# xmcd
#
# Track frame offsets:
# 150
# 18478
# 38519
# 52891
# 74337
# 92888
# 115300
# 137820
# 153786
# 171664
# 189587
# 209225
# 229603
# 280695
# 298926
#
# Disc length: 4222 seconds
#
#
# Revision: 0
# Processed by: cddbd v1.5.1PL0 Copyright (c) Steve Scherf et al.
# Submitted via: FreeRIP 2.70 
#
DISCID=df107c0f
DTITLE=Cup&Cino - musicbar
DYEAR=1999
DGENRE=Other
TTITLE0=Cup&Cino - introducione
TTITLE1=Andrea Bocelli - Vivo per lei
TTITLE2=Ricchi e Poveri - Sará perche ti amo
TTITLE3=Joe Cocker - Noubliez Jamais
TTITLE4=Cup&Cino - Originale
TTITLE5=Eros Ramazotti&Tina Turner - Cose della Vita
TTITLE6=Randy Crawford - Captain of her heart
TTITLE7=Edoardo Bennato - Viva la mamma
TTITLE8=Cup&Cino - Originale
TTITLE9=Ricchi e poveri - Adesso tu
TTITLE10=Lisa Stanfield - the real thing
TTITLE11=Rick Wakeman - Bridman of Alcatraz
TTITLE12=Cup&Cino - massimo
TTITLE13=Nada - Amore disperato
TTITLE14=Adiemus - Adiemus
EXTD=
EXTT0=
EXTT1=
EXTT2=
EXTT3=
EXTT4=
EXTT5=
EXTT6=
EXTT7=
EXTT8=
EXTT9=
EXTT10=
EXTT11=
EXTT12=
EXTT13=
EXTT14=
PLAYORDER=
